<svg width="13" height="15" viewBox="0 0 13 15" fill="none" xmlns="http://www.w3.org/2000/svg">
<path d="M11.9073 2.61628C10.8085 0.941861 8.99454 0 6.95385 0C4.93059 0 3.11664 0.941861 1.98292 2.61628C0.849195 4.25581 0.587567 6.34884 1.28524 8.18023C1.4771 8.6686 1.77361 9.17442 2.15733 9.62791L6.57013 14.8256C6.67478 14.9302 6.77943 15 6.9364 15C7.09338 15 7.19803 14.9302 7.30268 14.8256L11.7329 9.62791C12.1166 9.17442 12.4306 8.68605 12.605 8.18023C13.3027 6.34884 13.0411 4.25581 11.9073 2.61628ZM6.95385 8.7907C5.45385 8.7907 4.21547 7.55233 4.21547 6.05233C4.21547 4.55233 5.45385 3.31395 6.95385 3.31395C8.45385 3.31395 9.69222 4.55233 9.69222 6.05233C9.69222 7.55233 8.47129 8.7907 6.95385 8.7907Z" fill="#FFD54F"/>
</svg>
